#!OML:ASF F:\VICON\USERDATA\INSTALL\rory3\rory3.ASF
:FULLY-SPECIFIED
:DEGREES
893
root 1.41043 17.3256 -4.86679 -1.14942 -2.27482 4.19217
lowerback 3.52552 -2.59368 -6.51219
upperback -4.45623 -3.82979 1.44387
thorax -6.12705 -1.5554 5.48802
lowerneck -20.9257 -0.737128 -11.7083
upperneck 24.0456 0.493399 8.71425
head 11.2005 0.255338 5.28363
rclavicle -7.25564e-015 1.59028e-015
rhumerus 66.3636 -69.8211 -50.5443
rradius 78.6189
rwrist -21.5814
rhand -46.2594 -2.09456
rfingers 7.12502
rthumb -18.9952 -31.187
lclavicle -7.25564e-015 1.59028e-015
lhumerus 61.6529 68.9075 46.3923
lradius 80.036
lwrist 30.9896
lhand -28.4414 19.8265
lfingers 7.12502
lthumb -1.81226 49.7985
rfemur -18.4903 -2.46289 8.01056
rtibia 44.9605
rfoot -21.9386 -7.55465
rtoes 0.387595
lfemur 10.2401 4.58658 -20.8887
ltibia 19.8607
lfoot -18.1436 16.0119
ltoes -28.9729
894
root 1.34454 17.3248 -4.83354 -1.2128 -2.85032 4.08489
lowerback 3.45615 -2.53973 -6.40411
upperback -4.30984 -3.73993 1.46499
thorax -5.94757 -1.52701 5.43305
lowerneck -21.2046 -0.90192 -11.6923
upperneck 24.1637 0.197458 9.01577
head 11.3334 0.161012 5.36481
rclavicle 8.44835e-015 -1.19271e-014
rhumerus 64.7548 -69.7628 -48.5916
rradius 77.9279
rwrist -22.0549
rhand -46.3743 -2.42331
rfingers 7.12502
rthumb -19.1056 -31.5049
lclavicle 8.44835e-015 -1.19271e-014
lhumerus 60.7486 68.566 45.486
lradius 78.174
lwrist 30.112
lhand -28.1368 19.7429
lfingers 7.12502
lthumb -1.51806 49.7173
rfemur -18.2992 -2.11557 8.3919
rtibia 44.711
rfoot -22.0422 -7.34549
rtoes 0.166161
lfemur 10.3083 4.4219 -20.6861
ltibia 20.2673
lfoot -17.995 16.53
ltoes -29.7783
895
root 1.27756 17.3223 -4.80373 -1.26627 -3.40563 4.05881
lowerback 3.41947 -2.50504 -6.3957
upperback -4.16694 -3.68586 1.46968
thorax -5.7818 -1.51127 5.42162
lowerneck -21.5325 -1.05865 -11.7044
upperneck 24.2583 -0.0923668 9.38866
head 11.4677 0.0782293 5.47926
rclavicle -7.65321e-015 -2.38542e-015
rhumerus 63.3892 -69.6588 -46.8187
rradius 77.1788
rwrist -22.5393
rhand -46.3835 -2.94972
rfingers 7.12502
rthumb -19.1145 -32.0304
lclavicle -7.65321e-015 -2.38542e-015
lhumerus 59.6819 68.253 44.3818
lradius 76.2729
lwrist 29.0521
lhand -28.1191 19.6975
lfingers 7.12502
lthumb -1.50096 49.6719
rfemur -18.1462 -1.82792 8.70635
rtibia 44.5035
rfoot -22.1091 -7.13368
rtoes -0.025481
lfemur 10.4073 4.35857 -20.53
ltibia 20.5838
lfoot -17.8215 16.8755
ltoes -30.3573
896
root 1.20925 17.3213 -4.76939 -1.3461 -3.98419 3.98028
lowerback 3.39986 -2.47266 -6.36131
upperback -4.07401 -3.63494 1.49613
thorax -5.6788 -1.49372 5.42196
lowerneck -21.5939 -1.14335 -11.6447
upperneck 24.2945 -0.343737 9.78482
head 11.5241 0.0205199 5.58797
rclavicle -1.98785e-015 -1.59028e-015
rhumerus 62.1765 -69.4503 -45.1881
rradius 76.4061
rwrist -23.0764
rhand -46.3189 -3.3807
rfingers 7.12502
rthumb -19.0523 -32.4676
lclavicle -1.98785e-015 -1.59028e-015
lhumerus 58.5711 67.8767 43.1642
lradius 74.232
lwrist 27.9783
lhand -27.8227 19.6722
lfingers 7.12502
lthumb -1.21467 49.6485
rfemur -17.9677 -1.5593 9.07998
rtibia 44.3372
rfoot -22.2612 -6.84645
rtoes 0.0170562
lfemur 10.5955 4.24742 -20.3231
ltibia 20.8199
lfoot -17.6327 17.2614
ltoes -30.739
897
root 1.14051 17.3276 -4.73219 -1.41549 -4.62073 3.88964
lowerback 3.36561 -2.42249 -6.28406
upperback -3.98055 -3.55795 1.49669
thorax -5.57421 -1.46565 5.36841
lowerneck -21.5967 -1.2208 -11.5373
upperneck 24.2755 -0.60034 10.1574
head 11.55 -0.037842 5.67475
rclavicle -3.77691e-014 -4.77083e-015
rhumerus 60.9231 -69.2132 -43.5883
rradius 75.7331
rwrist -23.6889
rhand -46.4457 -3.71485
rfingers 7.12502
rthumb -19.1743 -32.7896
lclavicle -3.77691e-014 -4.77083e-015
lhumerus 57.6582 67.4622 42.0542
lradius 72.147
lwrist 27.1629
lhand -27.4602 19.6051
lfingers 7.12502
lthumb -0.864535 49.5831
rfemur -17.8405 -1.35933 9.47539
rtibia 44.2107
rfoot -22.308 -6.64546
rtoes -0.0837056
lfemur 10.7789 4.11305 -20.1365
ltibia 21.0476
lfoot -17.406 17.7412
ltoes -31.1719
898
root 1.07047 17.3401 -4.6992 -1.37049 -5.22563 3.85139
lowerback 3.36025 -2.40905 -6.34818
upperback -4.01574 -3.542 1.55514
thorax -5.60415 -1.4517 5.46626
lowerneck -21.447 -1.25275 -11.4499
upperneck 24.2395 -0.777363 10.4443
head 11.53 -0.0757518 5.73957
rclavicle 4.11484e-014 -7.95139e-016
rhumerus 59.7168 -68.7733 -42.0151
rradius 75.1115
rwrist -24.2613
rhand -46.5678 -4.12012
rfingers 7.12502
rthumb -19.2917 -33.1832
lclavicle 4.11484e-014 -7.95139e-016
lhumerus 56.0404 67.0265 40.292
lradius 70.0449
lwrist 26.5205
lhand -27.5053 19.3094
lfingers 7.12502
lthumb -0.908089 49.2872
rfemur -17.8951 -1.201 9.82728
rtibia 44.1239
rfoot -22.237 -6.57494
rtoes -0.405088
lfemur 10.8094 4.01282 -20.0018
ltibia 21.2584
lfoot -17.0598 18.1474
ltoes -31.7264
899
root 1.00112 17.3488 -4.66566 -1.3324 -5.80083 3.67443
lowerback 3.37993 -2.40513 -6.22311
upperback -4.0905 -3.52959 1.61644
thorax -5.69914 -1.44379 5.46385
lowerneck -21.241 -1.30497 -11.1986
upperneck 24.2422 -1.00001 10.5578
head 11.5194 -0.143304 5.70241
rclavicle -1.73937e-014 1.74931e-014
rhumerus 58.5172 -68.3366 -40.436
rradius 74.5122
rwrist -24.8299
rhand -46.5242 -4.51479
rfingers 7.12502
rthumb -19.2498 -33.5821
lclavicle -1.73937e-014 1.74931e-014
lhumerus 54.3915 66.4892 38.4526
lradius 67.9528
lwrist 25.9879
lhand -27.7184 19.2531
lfingers 7.12502
lthumb -1.11398 49.2299
rfemur -17.9257 -1.06439 10.3134
rtibia 44.0791
rfoot -22.1804 -6.33413
rtoes -0.0603141
lfemur 10.8771 3.90369 -19.7021
ltibia 21.4779
lfoot -16.6757 18.4804
ltoes -32.201
900
root 0.932354 17.3561 -4.6321 -1.31634 -6.39404 3.45888
lowerback 3.37685 -2.37397 -5.99377
upperback -4.1053 -3.47201 1.65255
thorax -5.72991 -1.42285 5.36937
lowerneck -21.0937 -1.39397 -10.8901
upperneck 24.2292 -1.27101 10.6162
head 11.5202 -0.233173 5.6269
rclavicle -1.00386e-014 8.74653e-015
rhumerus 57.3801 -68.0312 -38.905
rradius 73.9918
rwrist -25.4476
rhand -46.3905 -4.92666
rfingers 7.12502
rthumb -19.1212 -34.0067
lclavicle -1.00386e-014 8.74653e-015
lhumerus 53.296 65.9663 37.206
lradius 65.9415
lwrist 25.4923
lhand -27.5399 19.337
lfingers 7.12502
lthumb -0.941543 49.3147
rfemur -17.9338 -0.95733 10.8287
rtibia 44.06
rfoot -22.0486 -6.09919
rtoes -0.0303385
lfemur 10.9839 3.80464 -19.363
ltibia 21.7319
lfoot -16.3819 18.8129
ltoes -32.4853
901
root 0.862485 17.3624 -4.59963 -1.33464 -6.96878 3.40466
lowerback 3.33528 -2.39037 -5.96914
upperback -4.07506 -3.48544 1.72795
thorax -5.66888 -1.43225 5.4323
lowerneck -20.7522 -1.41897 -10.8123
upperneck 23.9343 -1.3984 10.769
head 11.3586 -0.267886 5.63161
rclavicle 1.47101e-014 1.59028e-014
rhumerus 56.9388 -67.6194 -37.9876
rradius 73.5014
rwrist -25.9377
rhand -45.6745 -4.98537
rfingers 7.12502
rthumb -18.4326 -34.1321
lclavicle 1.47101e-014 1.59028e-014
lhumerus 51.8579 65.5825 35.7145
lradius 63.9682
lwrist 25.1439
lhand -27.322 19.4417
lfingers 7.12502
lthumb -0.731092 49.4202
rfemur -17.9061 -0.869045 11.1498
rtibia 44.0331
rfoot -21.8814 -5.80954
rtoes -0.497023
lfemur 11.0747 3.71662 -19.203
ltibia 22.0498
lfoot -16.0083 19.1395
ltoes -32.9575
902
root 0.791006 17.3703 -4.56412 -1.39691 -7.53742 3.34203
lowerback 3.26307 -2.40073 -5.9279
upperback -3.96985 -3.48703 1.78217
thorax -5.51431 -1.44259 5.4579
lowerneck -20.6005 -1.489 -10.7339
upperneck 23.7342 -1.58301 10.9531
head 11.2788 -0.322937 5.6485
rclavicle 4.11484e-014 6.36111e-015
rhumerus 56.7368 -67.247 -37.3477
rradius 73.07
rwrist -26.089
rhand -44.6688 -5.10731
rfingers 7.12502
rthumb -17.465 -34.3428
lclavicle 4.11484e-014 6.36111e-015
lhumerus 50.7005 65.2291 34.3877
lradius 61.9239
lwrist 24.9596
lhand -27.2694 19.759
lfingers 7.12502
lthumb -0.680285 49.7376
rfemur -17.7904 -0.794319 11.4737
rtibia 43.9758
rfoot -21.7205 -5.41157
rtoes -0.730972
lfemur 11.208 3.59613 -19.0427
ltibia 22.3902
lfoot -15.6569 19.4779
ltoes -33.3035
903
root 0.718606 17.3806 -4.52981 -1.4658 -8.08833 3.19031
lowerback 3.32132 -2.4629 -5.84273
upperback -4.00708 -3.56287 1.92114
thorax -5.5729 -1.47763 5.56629
lowerneck -20.2658 -1.50437 -10.8225
upperneck 23.7348 -1.69535 11.2457
head 11.2309 -0.354641 5.75404
rclavicle 6.95746e-016 1.66979e-014
rhumerus 56.3984 -66.5974 -36.5995
rradius 72.7932
rwrist -26.3001
rhand -44.198 -5.30952
rfingers 7.12502
rthumb -17.0118 -34.5846
lclavicle 6.95746e-016 1.66979e-014
lhumerus 49.0737 64.8763 32.6254
lradius 59.7895
lwrist 24.5538
lhand -26.9057 20.2699
lfingers 7.12502
lthumb -0.32903 50.2494
rfemur -17.6134 -0.682278 11.8952
rtibia 43.8511
rfoot -21.6105 -4.93882
rtoes -0.0948313
lfemur 11.3321 3.5542 -18.7452
ltibia 22.7479
lfoot -15.3432 19.6968
ltoes -33.3231
904
root 0.646223 17.3897 -4.49498 -1.47024 -8.59686 3.16014
lowerback 3.32513 -2.62661 -6.00447
upperback -4.16016 -3.78309 2.19319
thorax -5.68176 -1.56598 5.96599
lowerneck -19.5979 -1.38677 -11.2524
upperneck 23.6461 -1.5744 11.6837
head 11.0553 -0.301081 5.99838
rclavicle 1.63997e-014 6.36111e-015
rhumerus 56.7655 -65.6671 -36.3445
rradius 72.5052
rwrist -26.7077
rhand -43.8089 -5.4476
rfingers 7.12502
rthumb -16.6372 -34.7545
lclavicle 1.63997e-014 6.36111e-015
lhumerus 46.6037 64.5851 30.2518
lradius 57.7169
lwrist 24.102
lhand -26.3809 20.6251
lfingers 7.12502
lthumb 0.177844 50.6047
rfemur -17.5019 -0.696983 12.1635
rtibia 43.6687
rfoot -21.4994 -4.48034
rtoes -0.197686
lfemur 11.3333 3.61765 -18.5373
ltibia 23.136
lfoot -14.9478 19.8021
ltoes -33.4484
